<mxfile host="app.diagrams.net" modified="2020-11-04T21:30:56.261Z" agent="5.0 (Windows)" etag="3S2D8UxpAq8Fvwl2MoPd" version="13.8.9-1" type="github">
  <diagram name="Page-1" id="c9db0220-8083-56f3-ca83-edcdcd058819">
    <mxGraphModel dx="2370" dy="3568" grid="1" gridSize="10" guides="1" tooltips="1" connect="1" arrows="1" fold="1" page="1" pageScale="1.5" pageWidth="2666" pageHeight="1500" background="#ffffff" math="0" shadow="0">
      <root>
        <mxCell id="0" style=";html=1;" />
        <mxCell id="1" style=";html=1;" parent="0" />
        <mxCell id="PDyQlyDawuRjDptCc_sd-1" value="" style="rounded=0;whiteSpace=wrap;html=1;fillColor=#000000;" parent="1" vertex="1">
          <mxGeometry y="-2250" width="4000" height="210" as="geometry" />
        </mxCell>
        <mxCell id="PDyQlyDawuRjDptCc_sd-2" value="" style="rounded=1;whiteSpace=wrap;html=1;fillColor=none;arcSize=0;verticalAlign=bottom;" parent="1" vertex="1">
          <mxGeometry x="40" y="-1920" width="3920" height="1880" as="geometry" />
        </mxCell>
        <mxCell id="PDyQlyDawuRjDptCc_sd-5" value="&lt;font style=&quot;font-size: 18px;&quot;&gt;Characters&lt;/font&gt;" style="rounded=1;whiteSpace=wrap;html=1;arcSize=33;fontSize=18;verticalAlign=bottom;align=center;horizontal=1;spacingTop=0;spacingBottom=0;spacingLeft=0;spacingRight=80;fillColor=#808080;strokeWidth=2;" parent="1" vertex="1">
          <mxGeometry x="40" y="-1980" width="200" height="60" as="geometry" />
        </mxCell>
        <mxCell id="PDyQlyDawuRjDptCc_sd-6" value="&lt;font style=&quot;font-size: 18px;&quot;&gt;Material Calendar&lt;/font&gt;" style="rounded=1;whiteSpace=wrap;html=1;arcSize=29;fontSize=18;verticalAlign=bottom;align=center;horizontal=1;spacingTop=0;spacingBottom=0;spacingLeft=0;spacingRight=35;fillColor=#CCCCCC;" parent="1" vertex="1">
          <mxGeometry x="240" y="-1980" width="200" height="60" as="geometry" />
        </mxCell>
        <mxCell id="PDyQlyDawuRjDptCc_sd-7" value="New Feature 1" style="rounded=1;whiteSpace=wrap;html=1;arcSize=29;fontSize=18;verticalAlign=bottom;spacingRight=40;fillColor=#CCCCCC;" parent="1" vertex="1">
          <mxGeometry x="440" y="-1980" width="200" height="60" as="geometry" />
        </mxCell>
        <mxCell id="cZXOhrfB4aTAH3RsvbSh-1" value="&lt;div&gt;New Feature 2&lt;/div&gt;" style="rounded=1;whiteSpace=wrap;html=1;arcSize=29;fontSize=18;verticalAlign=bottom;spacingRight=40;fillColor=#CCCCCC;" parent="1" vertex="1">
          <mxGeometry x="640" y="-1980" width="200" height="60" as="geometry" />
        </mxCell>
        <mxCell id="cZXOhrfB4aTAH3RsvbSh-2" value="" style="shape=image;html=1;verticalAlign=top;verticalLabelPosition=bottom;labelBackgroundColor=#ffffff;imageAspect=0;aspect=fixed;image=https://cdn0.iconfinder.com/data/icons/elasto-online-store/26/00-ELASTOFONT-STORE-READY_close-128.png;fontSize=18;align=center;" parent="1" vertex="1">
          <mxGeometry x="220" y="-1970" width="10" height="10" as="geometry" />
        </mxCell>
        <mxCell id="cZXOhrfB4aTAH3RsvbSh-3" value="" style="shape=image;html=1;verticalAlign=top;verticalLabelPosition=bottom;labelBackgroundColor=#ffffff;imageAspect=0;aspect=fixed;image=https://cdn0.iconfinder.com/data/icons/elasto-online-store/26/00-ELASTOFONT-STORE-READY_close-128.png;fontSize=18;align=center;" parent="1" vertex="1">
          <mxGeometry x="420" y="-1970" width="10" height="10" as="geometry" />
        </mxCell>
        <mxCell id="cZXOhrfB4aTAH3RsvbSh-4" value="" style="shape=image;html=1;verticalAlign=top;verticalLabelPosition=bottom;labelBackgroundColor=#ffffff;imageAspect=0;aspect=fixed;image=https://cdn0.iconfinder.com/data/icons/elasto-online-store/26/00-ELASTOFONT-STORE-READY_close-128.png;fontSize=18;align=center;" parent="1" vertex="1">
          <mxGeometry x="620" y="-1970" width="10" height="10" as="geometry" />
        </mxCell>
        <mxCell id="cZXOhrfB4aTAH3RsvbSh-5" value="" style="shape=image;html=1;verticalAlign=top;verticalLabelPosition=bottom;labelBackgroundColor=#ffffff;imageAspect=0;aspect=fixed;image=https://cdn0.iconfinder.com/data/icons/elasto-online-store/26/00-ELASTOFONT-STORE-READY_close-128.png;fontSize=18;align=center;" parent="1" vertex="1">
          <mxGeometry x="820" y="-1970" width="10" height="10" as="geometry" />
        </mxCell>
        <mxCell id="cZXOhrfB4aTAH3RsvbSh-6" value="" style="rounded=1;whiteSpace=wrap;html=1;strokeWidth=2;fillColor=#CCCCCC;fontSize=18;align=center;" parent="1" vertex="1">
          <mxGeometry x="120" y="-1675" width="880" height="1560" as="geometry" />
        </mxCell>
        <mxCell id="cZXOhrfB4aTAH3RsvbSh-10" value="" style="rounded=1;whiteSpace=wrap;html=1;strokeWidth=2;fillColor=#CCCCCC;fontSize=18;align=center;" parent="1" vertex="1">
          <mxGeometry x="1080" y="-1680" width="880" height="1560" as="geometry" />
        </mxCell>
        <mxCell id="cZXOhrfB4aTAH3RsvbSh-11" value="" style="rounded=1;whiteSpace=wrap;html=1;strokeWidth=2;fillColor=#CCCCCC;fontSize=18;align=center;" parent="1" vertex="1">
          <mxGeometry x="2040" y="-1680" width="880" height="1570" as="geometry" />
        </mxCell>
        <mxCell id="cZXOhrfB4aTAH3RsvbSh-13" value="" style="rounded=1;whiteSpace=wrap;html=1;strokeWidth=2;fillColor=#CCCCCC;fontSize=18;align=center;" parent="1" vertex="1">
          <mxGeometry x="3000" y="-1680" width="880" height="1560" as="geometry" />
        </mxCell>
        <mxCell id="cZXOhrfB4aTAH3RsvbSh-14" value="&lt;font style=&quot;font-size: 34px&quot;&gt;Character One&lt;/font&gt;" style="text;html=1;strokeColor=none;fillColor=none;align=center;verticalAlign=middle;whiteSpace=wrap;rounded=0;fontSize=18;" parent="1" vertex="1">
          <mxGeometry x="120" y="-1760" width="880" height="80" as="geometry" />
        </mxCell>
        <mxCell id="cZXOhrfB4aTAH3RsvbSh-15" value="&lt;div&gt;&lt;font style=&quot;font-size: 34px&quot;&gt;Character Two&lt;/font&gt;&lt;/div&gt;" style="text;html=1;strokeColor=none;fillColor=none;align=center;verticalAlign=middle;whiteSpace=wrap;rounded=0;fontSize=18;" parent="1" vertex="1">
          <mxGeometry x="1080" y="-1760" width="880" height="80" as="geometry" />
        </mxCell>
        <mxCell id="cZXOhrfB4aTAH3RsvbSh-16" value="&lt;div&gt;&lt;font style=&quot;font-size: 34px&quot;&gt;Character Three&lt;br&gt;&lt;/font&gt;&lt;/div&gt;" style="text;html=1;strokeColor=none;fillColor=none;align=center;verticalAlign=middle;whiteSpace=wrap;rounded=0;fontSize=18;" parent="1" vertex="1">
          <mxGeometry x="2040" y="-1760" width="880" height="80" as="geometry" />
        </mxCell>
        <mxCell id="cZXOhrfB4aTAH3RsvbSh-17" value="&lt;div&gt;&lt;font style=&quot;font-size: 34px&quot;&gt;Character Four&lt;br&gt;&lt;/font&gt;&lt;/div&gt;" style="text;html=1;strokeColor=none;fillColor=none;align=center;verticalAlign=middle;whiteSpace=wrap;rounded=0;fontSize=18;" parent="1" vertex="1">
          <mxGeometry x="3000" y="-1760" width="880" height="80" as="geometry" />
        </mxCell>
        <mxCell id="cZXOhrfB4aTAH3RsvbSh-23" value="&lt;div align=&quot;left&quot;&gt;&lt;font style=&quot;font-size: 24px&quot;&gt;Team Name X&lt;/font&gt;&lt;br&gt;&lt;/div&gt;" style="rounded=0;whiteSpace=wrap;html=1;strokeWidth=2;fillColor=#CCCCCC;fontSize=18;align=left;spacingLeft=20;" parent="1" vertex="1">
          <mxGeometry x="1800" y="-1880" width="400" height="60" as="geometry" />
        </mxCell>
        <mxCell id="cZXOhrfB4aTAH3RsvbSh-24" value="" style="rounded=0;whiteSpace=wrap;html=1;strokeWidth=2;fillColor=#CCCCCC;fontSize=18;align=center;" parent="1" vertex="1">
          <mxGeometry x="2140" y="-1880" width="60" height="60" as="geometry" />
        </mxCell>
        <mxCell id="cZXOhrfB4aTAH3RsvbSh-26" value="" style="triangle;whiteSpace=wrap;html=1;strokeWidth=2;fontSize=18;align=center;direction=south;fillColor=#E6E6E6;" parent="1" vertex="1">
          <mxGeometry x="2155" y="-1865" width="30" height="30" as="geometry" />
        </mxCell>
        <mxCell id="cZXOhrfB4aTAH3RsvbSh-28" value="&lt;div align=&quot;left&quot;&gt;&lt;font style=&quot;font-size: 24px&quot;&gt;Team Name Y&lt;br&gt;&lt;/font&gt;&lt;/div&gt;" style="rounded=0;whiteSpace=wrap;html=1;strokeWidth=2;fillColor=#CCCCCC;fontSize=18;align=left;spacingLeft=20;" parent="1" vertex="1">
          <mxGeometry x="1800" y="-1810" width="400" height="60" as="geometry" />
        </mxCell>
        <mxCell id="cZXOhrfB4aTAH3RsvbSh-29" value="Add New Team" style="rounded=0;whiteSpace=wrap;html=1;strokeWidth=2;fillColor=#CCCCCC;fontSize=18;align=left;spacingLeft=20;" parent="1" vertex="1">
          <mxGeometry x="1800" y="-1740" width="400" height="60" as="geometry" />
        </mxCell>
        <mxCell id="cZXOhrfB4aTAH3RsvbSh-31" value="" style="shape=image;imageAspect=0;aspect=fixed;verticalLabelPosition=bottom;verticalAlign=top;rounded=1;sketch=0;strokeWidth=4;fontSize=18;html=1;image=https://raw.githubusercontent.com/Sajius/PaimonPlanner/main/assets/images/characters/Klee.png;imageBorder=#000000;imageBackground=#B266FF;" parent="1" vertex="1">
          <mxGeometry x="350" y="-1580" width="420" height="428.04" as="geometry" />
        </mxCell>
        <mxCell id="cZXOhrfB4aTAH3RsvbSh-33" value="&lt;div style=&quot;font-size: 30px&quot; align=&quot;center&quot;&gt;&lt;font style=&quot;font-size: 30px&quot;&gt;Level&lt;/font&gt;&lt;/div&gt;" style="rounded=0;whiteSpace=wrap;html=1;sketch=0;strokeWidth=4;fontSize=18;align=center;spacingLeft=0;" parent="1" vertex="1">
          <mxGeometry x="350" y="-1151.96" width="420" height="60" as="geometry" />
        </mxCell>
        <mxCell id="cZXOhrfB4aTAH3RsvbSh-34" value="&lt;font style=&quot;font-size: 34px&quot;&gt;40&lt;/font&gt;" style="rounded=0;whiteSpace=wrap;html=1;sketch=0;strokeWidth=4;fontSize=18;" parent="1" vertex="1">
          <mxGeometry x="710" y="-1151.96" width="60" height="60" as="geometry" />
        </mxCell>
        <mxCell id="cZXOhrfB4aTAH3RsvbSh-35" value="&lt;div style=&quot;font-size: 24px&quot;&gt;Ascension Level&lt;/div&gt;" style="rounded=0;whiteSpace=wrap;html=1;sketch=0;strokeWidth=4;fontSize=18;align=center;spacingLeft=0;" parent="1" vertex="1">
          <mxGeometry x="190" y="-1040" width="250" height="60" as="geometry" />
        </mxCell>
        <mxCell id="cZXOhrfB4aTAH3RsvbSh-36" value="" style="rounded=0;whiteSpace=wrap;html=1;sketch=0;strokeWidth=4;fontSize=18;" parent="1" vertex="1">
          <mxGeometry x="440" y="-1040" width="80" height="60" as="geometry" />
        </mxCell>
        <mxCell id="cZXOhrfB4aTAH3RsvbSh-38" value="" style="triangle;whiteSpace=wrap;html=1;rounded=1;sketch=0;strokeWidth=1;fontSize=18;arcSize=0;rotation=90;" parent="1" vertex="1">
          <mxGeometry x="500" y="-1000" width="10" height="10" as="geometry" />
        </mxCell>
        <mxCell id="cZXOhrfB4aTAH3RsvbSh-39" value="" style="triangle;whiteSpace=wrap;html=1;rounded=1;sketch=0;strokeWidth=1;fontSize=18;arcSize=0;rotation=-90;direction=east;" parent="1" vertex="1">
          <mxGeometry x="500" y="-1030" width="10" height="10" as="geometry" />
        </mxCell>
        <mxCell id="cZXOhrfB4aTAH3RsvbSh-40" value="&lt;font style=&quot;font-size: 24px&quot;&gt;2&lt;/font&gt;" style="text;html=1;strokeColor=none;fillColor=none;align=center;verticalAlign=middle;whiteSpace=wrap;rounded=0;sketch=0;fontSize=18;" parent="1" vertex="1">
          <mxGeometry x="450" y="-1030" width="40" height="40" as="geometry" />
        </mxCell>
        <mxCell id="cZXOhrfB4aTAH3RsvbSh-47" value="&lt;font style=&quot;font-size: 24px&quot;&gt;Constellation&lt;/font&gt;" style="rounded=0;whiteSpace=wrap;html=1;sketch=0;strokeWidth=4;fontSize=18;align=center;spacingLeft=0;" parent="1" vertex="1">
          <mxGeometry x="600" y="-1040" width="250" height="60" as="geometry" />
        </mxCell>
        <mxCell id="cZXOhrfB4aTAH3RsvbSh-48" value="" style="rounded=0;whiteSpace=wrap;html=1;sketch=0;strokeWidth=4;fontSize=18;" parent="1" vertex="1">
          <mxGeometry x="850" y="-1040" width="80" height="60" as="geometry" />
        </mxCell>
        <mxCell id="cZXOhrfB4aTAH3RsvbSh-49" value="" style="triangle;whiteSpace=wrap;html=1;rounded=1;sketch=0;strokeWidth=1;fontSize=18;arcSize=0;rotation=90;" parent="1" vertex="1">
          <mxGeometry x="910" y="-1000" width="10" height="10" as="geometry" />
        </mxCell>
        <mxCell id="cZXOhrfB4aTAH3RsvbSh-50" value="" style="triangle;whiteSpace=wrap;html=1;rounded=1;sketch=0;strokeWidth=1;fontSize=18;arcSize=0;rotation=-90;direction=east;" parent="1" vertex="1">
          <mxGeometry x="910" y="-1030" width="10" height="10" as="geometry" />
        </mxCell>
        <mxCell id="cZXOhrfB4aTAH3RsvbSh-51" value="420" style="text;html=1;strokeColor=none;fillColor=none;align=center;verticalAlign=middle;whiteSpace=wrap;rounded=0;sketch=0;fontSize=18;" parent="1" vertex="1">
          <mxGeometry x="860" y="-1030" width="40" height="40" as="geometry" />
        </mxCell>
        <mxCell id="cZXOhrfB4aTAH3RsvbSh-52" value="&lt;font style=&quot;font-size: 40px&quot;&gt;Talent Levels&lt;/font&gt;" style="text;strokeColor=none;fillColor=none;align=center;verticalAlign=middle;rounded=0;sketch=0;fontSize=18;labelBackgroundColor=none;labelBorderColor=none;whiteSpace=wrap;html=1;fontStyle=4" parent="1" vertex="1">
          <mxGeometry x="410" y="-920" width="300" height="50" as="geometry" />
        </mxCell>
        <mxCell id="cZXOhrfB4aTAH3RsvbSh-55" value="Level X" style="rounded=0;whiteSpace=wrap;html=1;labelBackgroundColor=none;sketch=0;strokeWidth=4;fontSize=18;align=center;" parent="1" vertex="1">
          <mxGeometry x="220" y="-780" width="170" height="30" as="geometry" />
        </mxCell>
        <mxCell id="ciFMDtGqD-l_Y0JD_sTG-6" value="" style="endArrow=none;html=1;fontSize=20;" edge="1" parent="1">
          <mxGeometry width="50" height="50" relative="1" as="geometry">
            <mxPoint x="560" y="-150" as="sourcePoint" />
            <mxPoint x="560" y="-580" as="targetPoint" />
          </mxGeometry>
        </mxCell>
        <mxCell id="ciFMDtGqD-l_Y0JD_sTG-7" value="Talent 1" style="text;html=1;strokeColor=none;fillColor=none;align=center;verticalAlign=middle;whiteSpace=wrap;rounded=0;fontSize=30;" vertex="1" parent="1">
          <mxGeometry x="190" y="-840" width="230" height="60" as="geometry" />
        </mxCell>
        <mxCell id="ciFMDtGqD-l_Y0JD_sTG-8" value="&lt;div&gt;Talent 2&lt;/div&gt;" style="text;html=1;strokeColor=none;fillColor=none;align=center;verticalAlign=middle;whiteSpace=wrap;rounded=0;fontSize=30;" vertex="1" parent="1">
          <mxGeometry x="445" y="-840" width="230" height="60" as="geometry" />
        </mxCell>
        <mxCell id="ciFMDtGqD-l_Y0JD_sTG-9" value="Talent 3" style="text;html=1;strokeColor=none;fillColor=none;align=center;verticalAlign=middle;whiteSpace=wrap;rounded=0;fontSize=30;" vertex="1" parent="1">
          <mxGeometry x="700" y="-840" width="230" height="60" as="geometry" />
        </mxCell>
        <mxCell id="ciFMDtGqD-l_Y0JD_sTG-11" value="Level X" style="rounded=0;whiteSpace=wrap;html=1;labelBackgroundColor=none;sketch=0;strokeWidth=4;fontSize=18;align=center;" vertex="1" parent="1">
          <mxGeometry x="475" y="-780" width="170" height="30" as="geometry" />
        </mxCell>
        <mxCell id="ciFMDtGqD-l_Y0JD_sTG-12" value="&lt;font style=&quot;font-size: 20px&quot;&gt;Level X&lt;br&gt;&lt;/font&gt;" style="rounded=0;whiteSpace=wrap;html=1;labelBackgroundColor=none;sketch=0;strokeWidth=4;fontSize=18;align=center;" vertex="1" parent="1">
          <mxGeometry x="740" y="-780" width="170" height="30" as="geometry" />
        </mxCell>
        <mxCell id="ciFMDtGqD-l_Y0JD_sTG-15" value="" style="endArrow=classic;html=1;fontSize=30;exitX=0.5;exitY=1;exitDx=0;exitDy=0;entryX=0.21;entryY=0.615;entryDx=0;entryDy=0;entryPerimeter=0;" edge="1" parent="1" source="cZXOhrfB4aTAH3RsvbSh-55" target="cZXOhrfB4aTAH3RsvbSh-6">
          <mxGeometry width="50" height="50" relative="1" as="geometry">
            <mxPoint x="590" y="-1010" as="sourcePoint" />
            <mxPoint x="640" y="-1060" as="targetPoint" />
          </mxGeometry>
        </mxCell>
        <mxCell id="ciFMDtGqD-l_Y0JD_sTG-17" value="&lt;font style=&quot;font-size: 40px&quot;&gt;Weapon&lt;/font&gt;" style="text;strokeColor=none;fillColor=none;align=center;verticalAlign=middle;rounded=0;sketch=0;fontSize=40;labelBackgroundColor=none;labelBorderColor=none;whiteSpace=wrap;html=1;fontStyle=4" vertex="1" parent="1">
          <mxGeometry x="120" y="-610" width="440" height="50" as="geometry" />
        </mxCell>
        <mxCell id="ciFMDtGqD-l_Y0JD_sTG-18" value="&lt;font style=&quot;font-size: 24px&quot;&gt;Weapon Name&lt;/font&gt;" style="rounded=0;whiteSpace=wrap;html=1;fontSize=30;" vertex="1" parent="1">
          <mxGeometry x="240" y="-540" width="260" height="60" as="geometry" />
        </mxCell>
        <mxCell id="ciFMDtGqD-l_Y0JD_sTG-22" value="" style="shape=image;imageAspect=0;aspect=fixed;verticalLabelPosition=bottom;verticalAlign=top;fontSize=30;image=https://genshinimpact.wiki.fextralife.com/file/Genshin-Impact/white-iron-greatsword-claymore-weapon-genshin-impact-wiki-guide.png;imageBorder=#000000;imageBackground=#ffffff;" vertex="1" parent="1">
          <mxGeometry x="180" y="-540" width="60" height="60" as="geometry" />
        </mxCell>
        <mxCell id="ciFMDtGqD-l_Y0JD_sTG-27" value="&lt;font style=&quot;font-size: 24px&quot;&gt;&lt;font style=&quot;font-size: 24px&quot;&gt;Weapon Level&lt;/font&gt;&lt;br&gt;&lt;/font&gt;" style="text;html=1;strokeColor=none;fillColor=none;align=center;verticalAlign=middle;whiteSpace=wrap;rounded=0;fontSize=24;" vertex="1" parent="1">
          <mxGeometry x="190" y="-430" width="310" height="30" as="geometry" />
        </mxCell>
        <mxCell id="ciFMDtGqD-l_Y0JD_sTG-30" value="" style="endArrow=classic;html=1;fontSize=24;exitX=0.5;exitY=1;exitDx=0;exitDy=0;" edge="1" parent="1" source="ciFMDtGqD-l_Y0JD_sTG-18">
          <mxGeometry width="50" height="50" relative="1" as="geometry">
            <mxPoint x="270" y="-400" as="sourcePoint" />
            <mxPoint x="370" y="-460" as="targetPoint" />
          </mxGeometry>
        </mxCell>
        <mxCell id="ciFMDtGqD-l_Y0JD_sTG-31" value="&lt;font style=&quot;font-size: 24px&quot;&gt;&lt;font style=&quot;font-size: 24px&quot;&gt;Ascension Level&lt;/font&gt;&lt;br&gt;&lt;/font&gt;" style="text;html=1;strokeColor=none;fillColor=none;align=center;verticalAlign=middle;whiteSpace=wrap;rounded=0;fontSize=24;" vertex="1" parent="1">
          <mxGeometry x="190" y="-340" width="310" height="30" as="geometry" />
        </mxCell>
        <mxCell id="ciFMDtGqD-l_Y0JD_sTG-34" value="&lt;font style=&quot;font-size: 20px&quot;&gt;Level X&lt;br&gt;&lt;/font&gt;" style="rounded=0;whiteSpace=wrap;html=1;fontSize=24;" vertex="1" parent="1">
          <mxGeometry x="255" y="-390" width="180" height="30" as="geometry" />
        </mxCell>
        <mxCell id="ciFMDtGqD-l_Y0JD_sTG-35" value="&lt;font style=&quot;font-size: 20px&quot;&gt;Level X&lt;br&gt;&lt;/font&gt;" style="rounded=0;whiteSpace=wrap;html=1;fontSize=24;" vertex="1" parent="1">
          <mxGeometry x="255" y="-300" width="180" height="30" as="geometry" />
        </mxCell>
        <mxCell id="ciFMDtGqD-l_Y0JD_sTG-36" value="Extra" style="text;strokeColor=none;fillColor=none;align=center;verticalAlign=middle;rounded=0;sketch=0;fontSize=40;labelBackgroundColor=none;labelBorderColor=none;whiteSpace=wrap;html=1;fontStyle=4" vertex="1" parent="1">
          <mxGeometry x="560" y="-610" width="440" height="50" as="geometry" />
        </mxCell>
        <mxCell id="ciFMDtGqD-l_Y0JD_sTG-37" value="Artifacts" style="text;html=1;strokeColor=none;fillColor=none;align=center;verticalAlign=middle;whiteSpace=wrap;rounded=0;fontSize=25;fontStyle=0" vertex="1" parent="1">
          <mxGeometry x="705" y="-530" width="150" height="20" as="geometry" />
        </mxCell>
        <mxCell id="ciFMDtGqD-l_Y0JD_sTG-38" value="Artifact Set A" style="rounded=0;whiteSpace=wrap;html=1;fontSize=18;" vertex="1" parent="1">
          <mxGeometry x="670" y="-490" width="220" height="30" as="geometry" />
        </mxCell>
        <mxCell id="ciFMDtGqD-l_Y0JD_sTG-42" value="" style="endArrow=none;html=1;fontSize=18;exitX=0;exitY=0;exitDx=0;exitDy=0;entryX=1;entryY=0;entryDx=0;entryDy=0;" edge="1" parent="1">
          <mxGeometry width="50" height="50" relative="1" as="geometry">
            <mxPoint x="580" y="-410" as="sourcePoint" />
            <mxPoint x="980" y="-410" as="targetPoint" />
          </mxGeometry>
        </mxCell>
        <mxCell id="ciFMDtGqD-l_Y0JD_sTG-43" value="Stat Priotity" style="text;html=1;strokeColor=none;fillColor=none;align=center;verticalAlign=middle;whiteSpace=wrap;rounded=0;fontSize=25;fontStyle=0" vertex="1" parent="1">
          <mxGeometry x="705" y="-390" width="150" height="20" as="geometry" />
        </mxCell>
        <mxCell id="ciFMDtGqD-l_Y0JD_sTG-44" value="&lt;div align=&quot;left&quot;&gt;&lt;ul&gt;&lt;li&gt;Stat A&lt;/li&gt;&lt;/ul&gt;&lt;/div&gt;" style="text;html=1;strokeColor=none;fillColor=none;align=left;verticalAlign=middle;whiteSpace=wrap;rounded=0;fontSize=18;spacingTop=0;horizontal=1;" vertex="1" parent="1">
          <mxGeometry x="600" y="-350" width="200" height="30" as="geometry" />
        </mxCell>
        <mxCell id="ciFMDtGqD-l_Y0JD_sTG-45" value="&lt;div align=&quot;left&quot;&gt;&lt;ul&gt;&lt;li&gt;Stat B&lt;br&gt;&lt;/li&gt;&lt;/ul&gt;&lt;/div&gt;" style="text;html=1;strokeColor=none;fillColor=none;align=left;verticalAlign=middle;whiteSpace=wrap;rounded=0;fontSize=18;spacingTop=0;horizontal=1;" vertex="1" parent="1">
          <mxGeometry x="600" y="-320" width="200" height="30" as="geometry" />
        </mxCell>
        <mxCell id="ciFMDtGqD-l_Y0JD_sTG-46" value="&lt;div align=&quot;left&quot;&gt;&lt;ul&gt;&lt;li&gt;Stat C&lt;br&gt;&lt;/li&gt;&lt;/ul&gt;&lt;/div&gt;" style="text;html=1;strokeColor=none;fillColor=none;align=left;verticalAlign=middle;whiteSpace=wrap;rounded=0;fontSize=18;spacingTop=0;horizontal=1;" vertex="1" parent="1">
          <mxGeometry x="600" y="-290" width="200" height="30" as="geometry" />
        </mxCell>
        <mxCell id="ciFMDtGqD-l_Y0JD_sTG-47" value="&lt;div align=&quot;left&quot;&gt;&lt;ul&gt;&lt;li&gt;Stat D&lt;br&gt;&lt;/li&gt;&lt;/ul&gt;&lt;/div&gt;" style="text;html=1;strokeColor=none;fillColor=none;align=left;verticalAlign=middle;whiteSpace=wrap;rounded=0;fontSize=18;spacingTop=0;horizontal=1;" vertex="1" parent="1">
          <mxGeometry x="600" y="-260" width="200" height="30" as="geometry" />
        </mxCell>
        <mxCell id="ciFMDtGqD-l_Y0JD_sTG-48" value="&lt;div align=&quot;left&quot;&gt;&lt;ul&gt;&lt;li&gt;Stat E&lt;br&gt;&lt;/li&gt;&lt;/ul&gt;&lt;/div&gt;" style="text;html=1;strokeColor=none;fillColor=none;align=left;verticalAlign=middle;whiteSpace=wrap;rounded=0;fontSize=18;spacingTop=0;horizontal=1;" vertex="1" parent="1">
          <mxGeometry x="600" y="-230" width="200" height="30" as="geometry" />
        </mxCell>
      </root>
    </mxGraphModel>
  </diagram>
</mxfile>
